<?xml version="1.0" standalone="no"?>
<!DOCTYPE svg PUBLIC "-//W3C//DTD SVG 20010904//EN"
 "http://www.w3.org/TR/2001/REC-SVG-20010904/DTD/svg10.dtd">
<svg version="1.0" xmlns="http://www.w3.org/2000/svg"
 width="512.000000pt" height="512.000000pt" viewBox="0 0 512.000000 512.000000"
 preserveAspectRatio="xMidYMid meet">
<metadata>
Created by potrace 1.16, written by Peter Selinger 2001-2019
</metadata>
<g transform="translate(0.000000,512.000000) scale(0.100000,-0.100000)"
fill="#000000" stroke="none">
<path d="M3330 4263 c-193 -34 -378 -139 -497 -283 -66 -79 -136 -217 -165
-325 -20 -75 -21 -109 -26 -552 l-4 -472 -491 -3 c-484 -3 -493 -4 -562 -27
-269 -89 -456 -276 -546 -546 -23 -70 -24 -73 -27 -622 l-3 -552 25 -16 c22
-14 81 -16 563 -13 l538 3 95 33 c134 47 221 101 321 201 100 100 154 187 201
321 l33 95 3 493 3 492 460 0 c380 0 473 3 537 16 287 59 524 281 613 574 22
73 23 88 27 610 3 532 3 535 -18 558 l-21 22 -517 -1 c-284 -1 -528 -4 -542
-6z m-690 -2236 c0 -519 0 -521 -72 -667 -61 -124 -170 -231 -299 -293 -52
-25 -116 -51 -144 -57 -34 -9 -200 -14 -512 -17 l-463 -5 0 434 c1 458 6 525
49 639 62 164 216 318 380 380 112 42 173 47 629 48 l432 1 0 -463z"/>
<path d="M1963 4170 c-27 -11 -43 -40 -43 -77 1 -56 60 -94 112 -72 54 22 66
92 23 134 -25 26 -54 30 -92 15z"/>
<path d="M1650 3719 c-65 -10 -94 -23 -141 -66 -58 -52 -89 -122 -89 -199 0
-114 48 -197 142 -250 46 -25 63 -29 133 -29 70 0 87 4 133 29 87 49 141 139
142 238 0 178 -145 304 -320 277z m94 -153 c45 -19 77 -66 78 -115 2 -139
-180 -182 -244 -57 -33 65 -4 141 66 172 40 17 59 17 100 0z"/>
<path d="M711 3124 c-28 -36 -27 -79 4 -109 51 -52 135 -17 135 56 0 52 -27
79 -79 79 -31 0 -44 -6 -60 -26z"/>
</g>
</svg>
