<?xml version="1.0" standalone="no"?>
<!DOCTYPE svg PUBLIC "-//W3C//DTD SVG 20010904//EN"
 "http://www.w3.org/TR/2001/REC-SVG-20010904/DTD/svg10.dtd">
<svg version="1.0" xmlns="http://www.w3.org/2000/svg"
 width="512.000000pt" height="512.000000pt" viewBox="0 0 512.000000 512.000000"
 preserveAspectRatio="xMidYMid meet">

<g transform="translate(0.000000,512.000000) scale(0.100000,-0.100000)"
fill="#000000" stroke="none">
<path d="M2430 5104 c-108 -23 -205 -77 -291 -163 l-76 -76 -1011 -2020 c-555
-1112 -1017 -2045 -1026 -2075 -99 -327 115 -684 450 -755 103 -22 4064 -22
4167 0 228 48 414 235 463 466 19 86 14 205 -12 289 -9 30 -471 963 -1026
2075 l-1011 2020 -76 76 c-149 149 -347 207 -551 163z m244 -421 c39 -26 88
-121 903 -1748 474 -946 862 -1723 862 -1727 1 -5 -645 -8 -1434 -8 l-1435 0
100 200 100 200 904 2 904 3 44 30 c60 42 90 104 86 175 -4 50 -48 139 -492
990 -268 514 -499 947 -513 962 -37 39 -84 58 -141 58 -62 0 -98 -13 -136 -48
-18 -18 -262 -494 -702 -1375 -613 -1225 -674 -1352 -674 -1396 0 -63 34 -127
89 -166 l43 -30 1732 -3 1733 -2 38 -81 c33 -70 37 -87 33 -135 -6 -69 -45
-128 -107 -161 l-45 -23 -2016 2 -2016 3 -41 27 c-55 36 -84 86 -90 156 l-5
57 1000 2002 c1066 2130 1016 2037 1099 2063 50 17 133 4 177 -27z m205 -2097
c165 -318 301 -580 301 -582 0 -2 -272 -4 -605 -4 l-605 0 296 591 c162 326
299 588 303 583 4 -5 144 -269 310 -588z"/>
</g>
</svg>
